<svg width="130" height="130" viewBox="0 0 130 130" fill="none" xmlns="http://www.w3.org/2000/svg">
<path d="M65 0C52.1442 0 39.5771 3.81218 28.888 10.9545C18.1988 18.0968 9.86755 28.2484 4.94786 40.1256C0.0281635 52.0028 -1.25905 65.0721 1.24899 77.6808C3.75702 90.2896 9.94767 101.871 19.0381 110.962C28.1285 120.052 39.7104 126.243 52.3191 128.751C64.9279 131.259 77.9972 129.972 89.8744 125.052C101.752 120.132 111.903 111.801 119.046 101.112C126.188 90.4228 130 77.8558 130 65C130 56.4641 128.319 48.0117 125.052 40.1256C121.786 32.2394 116.998 25.0739 110.962 19.0381C104.926 13.0022 97.7606 8.21438 89.8744 4.94783C81.9883 1.68127 73.5359 0 65 0ZM65 117C54.7154 117 44.6617 113.95 36.1104 108.236C27.559 102.523 20.894 94.4013 16.9583 84.8995C13.0225 75.3978 11.9928 64.9423 13.9992 54.8553C16.0056 44.7683 20.9581 35.5028 28.2305 28.2304C35.5028 20.9581 44.7683 16.0056 54.8553 13.9992C64.9423 11.9927 75.3978 13.0225 84.8995 16.9583C94.4013 20.894 102.523 27.559 108.236 36.1103C113.95 44.6617 117 54.7154 117 65C117 78.7912 111.521 92.0176 101.77 101.77C92.0177 111.521 78.7913 117 65 117ZM85.15 69.095L71.5 61.23V32.5C71.5 30.7761 70.8152 29.1228 69.5962 27.9038C68.3772 26.6848 66.7239 26 65 26C63.2761 26 61.6228 26.6848 60.4038 27.9038C59.1848 29.1228 58.5 30.7761 58.5 32.5V65C58.5 65 58.5 65.52 58.5 65.78C58.5385 66.2278 58.6482 66.6667 58.825 67.08C58.9589 67.4656 59.1332 67.836 59.345 68.185C59.5229 68.5544 59.7409 68.9032 59.995 69.225L61.035 70.07L61.62 70.655L78.52 80.405C79.5106 80.9664 80.6314 81.2578 81.77 81.25C83.2092 81.26 84.6111 80.7921 85.7557 79.9197C86.9004 79.0472 87.7231 77.8195 88.0949 76.4291C88.4666 75.0387 88.3664 73.5643 87.8099 72.2369C87.2534 70.9096 86.2722 69.8045 85.02 69.095H85.15Z" fill="#20AB55"/>
</svg>
