<svg width="164" height="130" viewBox="0 0 164 130" fill="none" xmlns="http://www.w3.org/2000/svg">
<path d="M155.8 51.9988H135.3C134.215 52.0033 133.142 52.2241 132.142 52.6484C131.143 53.0726 130.237 53.692 129.478 54.4705L119.31 65.0987L96.35 38.8164C95.583 37.9933 94.656 37.3371 93.6263 36.8884C92.5967 36.4398 91.4863 36.2084 90.364 36.2084C89.2418 36.2084 88.1314 36.4398 87.1018 36.8884C86.0721 37.3371 85.1451 37.9933 84.378 38.8164L70.438 52.8227H57.4001C55.2253 52.8227 53.1396 53.6907 51.6018 55.2358C50.064 56.7809 49.2001 58.8765 49.2001 61.0616C49.2001 63.2467 50.064 65.3423 51.6018 66.8875C53.1396 68.4326 55.2253 69.3006 57.4001 69.3006H73.8C74.8792 69.3069 75.949 69.099 76.9481 68.689C77.9471 68.279 78.8558 67.6749 79.622 66.9113L90.2 55.8711L113.16 82.1534C113.901 83.0017 114.807 83.688 115.823 84.1699C116.838 84.6517 117.941 84.9188 119.064 84.9546C120.143 84.9609 121.213 84.7531 122.212 84.3431C123.211 83.9331 124.12 83.3289 124.886 82.5653L138.826 68.4767H155.8C157.975 68.4767 160.06 67.6087 161.598 66.0636C163.136 64.5184 164 62.4228 164 60.2377C164 58.0526 163.136 55.957 161.598 54.4119C160.06 52.8668 157.975 51.9988 155.8 51.9988ZM95.202 95.6653L79.622 111.319C78.8597 112.092 77.9528 112.704 76.9536 113.123C75.9543 113.541 74.8825 113.756 73.8 113.756C72.7176 113.756 71.6458 113.541 70.6465 113.123C69.6473 112.704 68.7403 112.092 67.9781 111.319L25.2561 68.3943C22.4445 65.571 20.2141 62.2187 18.6923 58.529C17.1706 54.8394 16.3874 50.8845 16.3874 46.8906C16.3874 42.8967 17.1706 38.9419 18.6923 35.2522C20.2141 31.5625 22.4445 28.2102 25.2561 25.3869C30.9277 19.7067 38.6091 16.5172 46.6171 16.5172C54.625 16.5172 62.3064 19.7067 67.9781 25.3869C68.7403 26.1591 69.6473 26.7721 70.6465 27.1903C71.6458 27.6086 72.7176 27.824 73.8 27.824C74.8825 27.824 75.9543 27.6086 76.9536 27.1903C77.9528 26.7721 78.8597 26.1591 79.622 25.3869C85.3839 19.881 93.0314 16.8105 100.983 16.8105C108.935 16.8105 116.582 19.881 122.344 25.3869C124.171 27.2468 125.768 29.3216 127.1 31.5661C128.294 33.2157 130.054 34.3616 132.041 34.7822C134.027 35.2028 136.098 34.8681 137.853 33.8429C139.608 32.8178 140.922 31.175 141.541 29.2325C142.16 27.29 142.04 25.1858 141.204 23.3272C139.177 19.9455 136.755 16.8199 133.988 14.0171C126.206 6.1065 115.875 1.23935 104.845 0.288189C93.8157 -0.662977 82.8097 2.36403 73.8 8.82659C66.8371 3.78677 58.6237 0.777748 50.0663 0.131605C41.5089 -0.514539 32.9402 1.22731 25.3058 5.16494C17.6713 9.10256 11.2681 15.0829 6.80257 22.4459C2.33708 29.8089 -0.0170111 38.2683 9.25401e-05 46.8906C-0.00236402 53.0211 1.20686 59.0911 3.5576 64.7484C5.90835 70.4057 9.35381 75.5376 13.6941 79.8465L56.4161 122.771C61.0286 127.4 67.281 130 73.8 130C80.3191 130 86.5715 127.4 91.184 122.771L106.6 107.282C108.127 105.739 108.985 103.65 108.985 101.474C108.985 99.2971 108.127 97.209 106.6 95.6653C105.071 94.1803 103.028 93.3502 100.901 93.3502C98.7745 93.3502 96.7311 94.1803 95.202 95.6653Z" fill="#20AB55"/>
</svg>
