<svg width="130" height="130" viewBox="0 0 130 130" fill="none" xmlns="http://www.w3.org/2000/svg">
<path d="M112.361 91.845C111.581 91.4152 110.719 91.1365 109.825 91.0248C108.931 90.9131 108.022 90.9707 107.152 91.1942C106.281 91.4178 105.466 91.8028 104.752 92.3273C104.039 92.8517 103.441 93.5052 102.995 94.25C98.8016 101.155 92.7733 106.892 85.514 110.884C78.2546 114.877 70.0191 116.986 61.6325 117H23.4151L27.7906 112.905C29.064 111.687 29.7787 110.04 29.7787 108.323C29.7787 106.605 29.064 104.958 27.7906 103.74C21.4286 97.7254 16.9729 90.1317 14.9321 81.8252C12.8914 73.5187 13.3476 64.8341 16.2489 56.7624C19.1502 48.6906 24.3796 41.5568 31.3404 36.1749C38.3012 30.7931 46.7131 27.3799 55.6162 26.325C56.514 26.2226 57.3818 25.953 58.1701 25.5317C58.9583 25.1104 59.6516 24.5457 60.2102 23.8697C60.7689 23.1936 61.182 22.4196 61.4261 21.5918C61.6701 20.764 61.7403 19.8986 61.6325 19.045C61.5248 18.1914 61.2413 17.3663 60.7982 16.6169C60.3551 15.8675 59.761 15.2084 59.05 14.6773C58.339 14.1461 57.5248 13.7533 56.6541 13.5213C55.7834 13.2893 54.8732 13.2226 53.9754 13.325C43.0993 14.6044 32.78 18.6222 24.0842 24.9632C15.3883 31.3041 8.63152 39.7381 4.51223 49.3932C0.392938 59.0483 -0.93935 69.5742 0.653085 79.8829C2.24552 90.1915 6.70489 99.9087 13.5702 108.03L2.08448 118.885C1.13583 119.799 0.4932 120.96 0.237683 122.221C-0.0178347 123.482 0.125208 124.786 0.648762 125.97C1.16166 127.157 2.03264 128.173 3.15196 128.89C4.27127 129.607 5.58882 129.994 6.93857 130H61.6325C72.4285 129.995 83.0332 127.29 92.3815 122.156C101.73 117.021 109.493 109.639 114.891 100.75C115.343 100.008 115.636 99.1886 115.754 98.3385C115.871 97.4884 115.81 96.6247 115.575 95.797C115.34 94.9693 114.935 94.194 114.384 93.5157C113.832 92.8374 113.145 92.2696 112.361 91.845ZM116.327 27.17V19.5C116.327 14.3283 114.166 9.36838 110.319 5.71142C106.473 2.05446 101.256 0 95.8163 0C90.3766 0 85.1598 2.05446 81.3133 5.71142C77.4669 9.36838 75.306 14.3283 75.306 19.5V27.17C71.3165 28.511 67.8608 30.9925 65.4128 34.2741C62.9649 37.5557 61.6444 41.4769 61.6325 45.5V58.5C61.6325 63.6717 63.7934 68.6316 67.6399 72.2886C71.4863 75.9455 76.7031 78 82.1428 78H109.49C114.929 78 120.146 75.9455 123.993 72.2886C127.839 68.6316 130 63.6717 130 58.5V45.5C129.988 41.4769 128.668 37.5557 126.22 34.2741C123.772 30.9925 120.316 28.511 116.327 27.17ZM88.9795 19.5C88.9795 17.7761 89.6998 16.1228 90.982 14.9038C92.2641 13.6848 94.0031 13 95.8163 13C97.6295 13 99.3685 13.6848 100.651 14.9038C101.933 16.1228 102.653 17.7761 102.653 19.5V26H88.9795V19.5ZM116.327 58.5C116.327 60.2239 115.606 61.8772 114.324 63.0962C113.042 64.3152 111.303 65 109.49 65H82.1428C80.3296 65 78.5906 64.3152 77.3085 63.0962C76.0263 61.8772 75.306 60.2239 75.306 58.5V45.5C75.306 43.7761 76.0263 42.1228 77.3085 40.9038C78.5906 39.6848 80.3296 39 82.1428 39H109.49C111.303 39 113.042 39.6848 114.324 40.9038C115.606 42.1228 116.327 43.7761 116.327 45.5V58.5Z" fill="#20AB55"/>
</svg>
