<svg width="130" height="130" viewBox="0 0 130 130" fill="none" xmlns="http://www.w3.org/2000/svg">
<path d="M59.0909 47.2727H82.7273C84.2945 47.2727 85.7975 46.6502 86.9056 45.542C88.0138 44.4338 88.6364 42.9308 88.6364 41.3636C88.6364 39.7964 88.0138 38.2934 86.9056 37.1853C85.7975 36.0771 84.2945 35.4545 82.7273 35.4545H70.9091V29.5455C70.9091 27.9783 70.2865 26.4753 69.1784 25.3671C68.0702 24.2589 66.5672 23.6364 65 23.6364C63.4328 23.6364 61.9298 24.2589 60.8217 25.3671C59.7135 26.4753 59.0909 27.9783 59.0909 29.5455V35.4545C54.3894 35.4545 49.8804 37.3222 46.5559 40.6467C43.2313 43.9712 41.3637 48.4802 41.3637 53.1818C41.3637 57.8834 43.2313 62.3924 46.5559 65.7169C49.8804 69.0414 54.3894 70.9091 59.0909 70.9091H70.9091C72.4763 70.9091 73.9793 71.5316 75.0875 72.6398C76.1956 73.748 76.8182 75.251 76.8182 76.8182C76.8182 78.3854 76.1956 79.8884 75.0875 80.9965C73.9793 82.1047 72.4763 82.7273 70.9091 82.7273H47.2727C45.7056 82.7273 44.2026 83.3498 43.0944 84.458C41.9862 85.5662 41.3637 87.0692 41.3637 88.6364C41.3637 90.2035 41.9862 91.7065 43.0944 92.8147C44.2026 93.9229 45.7056 94.5454 47.2727 94.5454H59.0909V100.455C59.0909 102.022 59.7135 103.525 60.8217 104.633C61.9298 105.741 63.4328 106.364 65 106.364C66.5672 106.364 68.0702 105.741 69.1784 104.633C70.2865 103.525 70.9091 102.022 70.9091 100.455V94.5454C75.6107 94.5454 80.1197 92.6778 83.4442 89.3532C86.7687 86.0287 88.6364 81.5197 88.6364 76.8182C88.6364 72.1166 86.7687 67.6076 83.4442 64.2831C80.1197 60.9586 75.6107 59.0909 70.9091 59.0909H59.0909C57.5237 59.0909 56.0207 58.4683 54.9126 57.3602C53.8044 56.252 53.1818 54.749 53.1818 53.1818C53.1818 51.6146 53.8044 50.1116 54.9126 49.0035C56.0207 47.8953 57.5237 47.2727 59.0909 47.2727ZM65 0C52.1442 0 39.5772 3.81218 28.888 10.9545C18.1988 18.0968 9.86755 28.2484 4.94786 40.1256C0.0281637 52.0028 -1.25905 65.0721 1.24899 77.6809C3.75702 90.2896 9.94767 101.872 19.0381 110.962C28.1285 120.052 39.7104 126.243 52.3192 128.751C64.9279 131.259 77.9972 129.972 89.8744 125.052C101.752 120.132 111.903 111.801 119.046 101.112C126.188 90.4229 130 77.8558 130 65C130 47.7609 123.152 31.2279 110.962 19.0381C98.7721 6.8482 82.2391 0 65 0ZM65 118.182C54.4817 118.182 44.1995 115.063 35.4538 109.219C26.7081 103.375 19.8916 95.0695 15.8664 85.3518C11.8412 75.6341 10.7881 64.941 12.8401 54.6247C14.8921 44.3085 19.9572 34.8324 27.3948 27.3948C34.8324 19.9572 44.3085 14.8921 54.6248 12.8401C64.941 10.788 75.6341 11.8412 85.3518 15.8664C95.0695 19.8916 103.375 26.7081 109.219 35.4538C115.063 44.1995 118.182 54.4816 118.182 65C118.182 79.1047 112.579 92.6317 102.605 102.605C92.6317 112.579 79.1047 118.182 65 118.182Z" fill="#20AB55"/>
</svg>
