<svg width="27" height="26" viewBox="0 0 27 26" fill="none" xmlns="http://www.w3.org/2000/svg">
<path d="M8.91298 9.39663C10.5448 13.8484 12.2342 15.6245 16.5321 17.5164L14.6695 20.1322C9.73427 17.7694 7.27613 13.7866 6.11843 10.6784L8.91298 9.39663Z" fill="#079F16"/>
<path d="M10.2826 3.25076C11.1552 3.24734 11.8186 3.97343 11.7592 4.79561C11.6655 6.08944 11.7652 7.02292 12.0336 8.18C12.181 8.81559 11.8475 9.46113 11.3175 9.87692C10.6033 10.4373 10.0576 11.1514 9.62388 11.7661C9.02275 12.6182 6.95404 12.557 6.49654 11.6288C5.55631 9.72116 4.91912 6.20672 6.29213 3.8323C6.50779 3.45933 6.94203 3.26382 7.392 3.26206L10.2826 3.25076Z" fill="#079F16"/>
<path d="M23.5277 17.367C23.6363 16.5493 22.9528 15.8399 22.0814 15.7968C20.7101 15.729 19.7408 15.5233 18.5568 15.1326C17.9064 14.9179 17.1877 15.1529 16.6869 15.5998C16.0119 16.2021 15.1957 16.6278 14.4973 16.9605C13.5294 17.4216 13.345 19.3685 14.2656 19.9091C16.1578 21.02 19.7755 22.04 22.4365 21.0383C22.8545 20.881 23.1123 20.4974 23.1682 20.0757L23.5277 17.367Z" fill="#079F16"/>
</svg>
