<svg width="130" height="130" viewBox="0 0 130 130" fill="none" xmlns="http://www.w3.org/2000/svg">
<path d="M124.078 53.235C118.883 52.389 113.613 51.9756 108.333 52C105.3 52 102.339 52 99.378 52.52C95.6916 48.0927 90.9862 44.4343 85.5837 41.795C90.2242 37.2336 92.8005 31.2746 92.8058 25.09C92.8058 18.4357 89.8687 12.054 84.6407 7.34869C79.4126 2.6434 72.3218 0 64.9283 0C57.5347 0 50.4439 2.6434 45.2158 7.34869C39.9878 12.054 37.0507 18.4357 37.0507 25.09C37.056 31.2746 39.6323 37.2336 44.2729 41.795C38.9024 44.448 34.2046 48.0784 30.4785 52.455C27.6619 52 24.7008 52 21.6675 52C16.3839 52.0185 11.1135 52.4754 5.92314 53.365C4.24068 53.6419 2.722 54.4472 1.6375 55.6375C0.552998 56.8278 -0.0269329 58.3259 0.000961342 59.865V113.49C-0.000761739 114.445 0.231313 115.388 0.680685 116.253C1.13006 117.119 1.78568 117.884 2.60094 118.495C3.41106 119.11 4.36157 119.557 5.38504 119.804C6.40851 120.051 7.47987 120.092 8.52312 119.925C12.8449 119.078 17.2458 118.599 21.6675 118.495C35.6575 118.481 49.344 122.165 61.0283 129.09L61.9672 129.415C62.9252 129.789 63.9563 129.988 65.0005 130C65.6898 129.992 66.373 129.882 67.0227 129.675H67.5282L68.4671 129.35C80.2626 122.248 94.1416 118.468 108.333 118.495C112.746 118.513 117.147 118.905 121.478 119.665C122.521 119.832 123.592 119.791 124.616 119.544C125.639 119.297 126.59 118.85 127.4 118.235C128.215 117.624 128.871 116.859 129.32 115.993C129.77 115.128 130.002 114.185 130 113.23V59.605C129.994 58.0881 129.398 56.621 128.317 55.4576C127.235 54.2943 125.736 53.508 124.078 53.235ZM65.0005 13C68.3837 13.2237 71.5476 14.5912 73.8568 16.8277C76.1659 19.0643 77.4494 22.0044 77.4494 25.0575C77.4494 28.1106 76.1659 31.0507 73.8568 33.2873C71.5476 35.5238 68.3837 36.8913 65.0005 37.115C61.6173 36.8913 58.4534 35.5238 56.1442 33.2873C53.835 31.0507 52.5516 28.1106 52.5516 25.0575C52.5516 22.0044 53.835 19.0643 56.1442 16.8277C58.4534 14.5912 61.6173 13.2237 65.0005 13ZM57.7783 112.645C46.4588 107.936 34.1377 105.496 21.6675 105.495C19.2842 105.495 16.9008 105.495 14.4453 105.82V65C20.5015 64.3902 26.6206 64.4995 32.6452 65.325H33.4396C42.0455 66.7485 50.2924 69.5676 57.7783 73.645V112.645ZM65.0005 62.4C61.7889 60.7326 58.4596 59.2561 55.0339 57.98H54.6006C52.2172 57.135 49.8339 56.29 47.3784 55.64C52.3928 52.0479 58.5921 50.0586 65.0005 49.985C71.3919 50.0215 77.5894 51.9646 82.6226 55.51C76.4916 57.2327 70.5837 59.5426 65.0005 62.4ZM115.556 105.82C100.726 104.479 85.7674 106.723 72.2226 112.32V73.32C79.7221 69.3472 87.9741 66.6585 96.5614 65.39H98.0058C103.812 64.5762 109.712 64.4451 115.556 65V105.82Z" fill="#20AB55"/>
</svg>
