<svg width="130" height="130" viewBox="0 0 130 130" fill="none" xmlns="http://www.w3.org/2000/svg">
<path d="M65.0334 71.4499C69.003 71.4499 72.8835 70.3053 76.1841 68.1608C79.4847 66.0163 82.0572 62.9682 83.5762 59.402C85.0953 55.8358 85.4928 51.9117 84.7184 48.1259C83.9439 44.34 82.0324 40.8625 79.2255 38.1331C76.4186 35.4037 72.8423 33.5449 68.949 32.7918C65.0557 32.0388 61.0202 32.4253 57.3528 33.9024C53.6854 35.3796 50.5508 37.8811 48.3454 41.0906C46.14 44.3 44.9629 48.0734 44.9629 51.9334C44.9629 57.1095 47.0774 62.0736 50.8414 65.7336C54.6054 69.3937 59.7104 71.4499 65.0334 71.4499ZM65.0334 45.4279C66.3566 45.4279 67.6501 45.8094 68.7503 46.5242C69.8505 47.2391 70.708 48.2551 71.2144 49.4438C71.7207 50.6325 71.8532 51.9406 71.5951 53.2025C71.337 54.4645 70.6998 55.6236 69.7641 56.5334C68.8285 57.4433 67.6364 58.0629 66.3386 58.3139C65.0409 58.5649 63.6957 58.4361 62.4732 57.9437C61.2508 57.4513 60.2059 56.6175 59.4708 55.5476C58.7356 54.4778 58.3433 53.22 58.3433 51.9334C58.3433 50.208 59.0481 48.5533 60.3028 47.3333C61.5574 46.1133 63.2591 45.4279 65.0334 45.4279ZM129.192 105.018C125.926 94.4828 119.964 84.9253 111.865 77.2398C116.373 69.3165 118.677 60.3865 118.55 51.3322C118.423 42.2779 115.868 33.4125 111.138 25.6121C106.409 17.8117 99.6684 11.3462 91.5826 6.8544C83.4968 2.36261 74.3457 0 65.0334 0C55.7212 0 46.5701 2.36261 38.4843 6.8544C30.3985 11.3462 23.6579 17.8117 18.9284 25.6121C14.1989 33.4125 11.6443 42.2779 11.5169 51.3322C11.3895 60.3865 13.6938 69.3165 18.2021 77.2398C10.0555 84.8998 4.06641 94.4643 0.807608 105.018C-0.0632554 107.913 -0.232549 110.964 0.313013 113.932C0.858575 116.901 2.10415 119.706 3.952 122.128C5.83468 124.59 8.28792 126.586 11.1126 127.954C13.9373 129.322 17.0538 130.022 20.2092 129.999H109.858C113.002 130.012 116.105 129.306 118.917 127.939C121.729 126.572 124.172 124.581 126.048 122.128C127.896 119.706 129.141 116.901 129.687 113.932C130.233 110.964 130.063 107.913 129.192 105.018ZM65.0334 12.9003C72.9726 12.9003 80.7335 15.1896 87.3347 19.4786C93.9359 23.7676 99.0809 29.8637 102.119 36.9961C105.157 44.1284 105.952 51.9767 104.403 59.5483C102.854 67.12 99.0314 74.075 93.4175 79.5339C87.8037 84.9928 80.6512 88.7103 72.8646 90.2164C65.078 91.7225 57.0069 90.9495 49.6721 87.9952C42.3373 85.0409 36.0681 80.0379 31.6573 73.619C27.2465 67.2 24.8923 59.6534 24.8923 51.9334C24.8923 41.5812 29.1214 31.6529 36.6494 24.3328C44.1773 17.0127 54.3874 12.9003 65.0334 12.9003ZM115.344 114.321C114.714 115.159 113.888 115.838 112.934 116.302C111.979 116.766 110.925 117.001 109.858 116.988H20.2092C19.1423 117.001 18.0877 116.766 17.1333 116.302C16.179 115.838 15.3526 115.159 14.7232 114.321C14.1216 113.515 13.7183 112.586 13.5444 111.605C13.3704 110.624 13.4304 109.617 13.7197 108.661C16.1212 100.798 20.4354 93.6126 26.2972 87.7137C31.2955 92.8112 37.3058 96.8692 43.9641 99.6418C50.6224 102.414 57.7903 103.844 65.0334 103.844C72.2766 103.844 79.4445 102.414 86.1028 99.6418C92.7611 96.8692 98.7714 92.8112 103.77 87.7137C109.631 93.6126 113.946 100.798 116.347 108.661C116.637 109.617 116.697 110.624 116.523 111.605C116.349 112.586 115.945 113.515 115.344 114.321Z" fill="#20AB55"/>
</svg>
